<svg id="Layer_1" data-name="Layer 1" xmlns="http://www.w3.org/2000/svg" viewBox="0 0 56.6 65.35"><defs><style>.cls-1{fill:#707793;stroke:#707793;stroke-miterlimit:10;}</style></defs><path class="cls-1" d="M297.42,388.83l-27.8,16.05V437l27.8,16,27.8-16v-32.1Zm-17.21,46.05a3.54,3.54,0,1,1,3.53-3.54A3.54,3.54,0,0,1,280.21,434.88Zm19.72-19.64h-4.28V427.3a1.91,1.91,0,0,0,.67,1.65c.9.65,2.56.33,3.13.15l.48-.16v5.75l-.28.07a17.78,17.78,0,0,1-4.16.55h-.25c-6.64-.15-6.9-5.61-6.9-6.24h0V429h0V415.24h-3.67v-5.46h3.67V404h7.31v5.83h4.28Zm16.7,1c-5.81-1.1-7.33,2.41-7.33,2.41V435h-6.44V410.2h6.44v2.72c2.3-4.34,7.33-2.93,7.33-2.93Z" transform="translate(-269.12 -388.25)"/></svg>